<svg width="170" height="94" viewBox="0 0 170 94" fill="none" xmlns="http://www.w3.org/2000/svg">
    <path d="M146.599 69.682H108.527V57.108H146.599C149.469 57.1048 152.222 55.963 154.252 53.9331C156.282 51.9031 157.423 49.1508 157.427 46.28V40.69C157.423 37.8192 156.282 35.0669 154.252 33.037C152.222 31.007 149.469 29.8652 146.599 29.862H108.527V17.29H146.599C159.503 17.29 170.001 27.788 170.001 40.692V46.282C170.001 59.184 159.503 69.682 146.599 69.682Z" fill="#221B14" />
    <path d="M138.315 4.794C137.027 3.28984 135.428 2.08247 133.629 1.25491C131.83 0.427349 129.873 -0.000764497 127.893 2.37653e-06H13.7286C11.7483 -0.00116367 9.79116 0.426773 7.99201 1.25436C6.19286 2.08194 4.59439 3.28953 3.30661 4.794C2.01658 6.29649 1.06751 8.06072 0.524756 9.96521C-0.0180021 11.8697 -0.141553 13.8692 0.162612 15.826L5.73261 51.848C9.44261 75.844 29.7606 93.26 54.0406 93.26H87.5766C111.857 93.26 132.175 75.844 135.885 51.848L141.455 15.826C141.76 13.8695 141.637 11.87 141.095 9.96541C140.553 8.06083 139.605 6.29648 138.315 4.794Z" fill="#221B14" />
    <path d="M32.0938 62.7188V62.0312C32.0938 62.0104 32.1146 61.9271 32.1562 61.7812C32.1979 61.6354 32.25 61.4896 32.3125 61.3438C32.375 61.1771 32.4271 61.0312 32.4688 60.9062C32.5104 60.7604 32.5312 60.6667 32.5312 60.625C32.5521 60.5417 32.5729 60.3438 32.5938 60.0312C32.6354 59.6979 32.6771 59.3438 32.7188 58.9688C32.7604 58.5938 32.7917 58.2292 32.8125 57.875C32.8542 57.5 32.875 57.2292 32.875 57.0625V51.3125C32.875 51.1875 32.8854 51.0208 32.9062 50.8125C32.9479 50.6042 33 50.4062 33.0625 50.2188C33.1458 50.0104 33.2396 49.8333 33.3438 49.6875C33.4688 49.5208 33.6146 49.4375 33.7812 49.4375C34.1562 49.4375 34.4375 49.5312 34.625 49.7188C34.8333 49.9062 34.9896 50.1354 35.0938 50.4062C35.2188 50.6562 35.3021 50.9375 35.3438 51.25C35.3854 51.5625 35.4271 51.8438 35.4688 52.0938C35.7812 53.6562 36.3438 55.125 37.1562 56.5C37.9896 57.875 39.0312 59.125 40.2812 60.25C40.3854 60.3333 40.5208 60.4479 40.6875 60.5938C40.875 60.7396 41.0521 60.8854 41.2188 61.0312C41.4271 61.2188 41.6354 61.4062 41.8438 61.5938C41.9479 61.6562 42.1354 61.7396 42.4062 61.8438C42.6771 61.9271 42.9688 62.0208 43.2812 62.125C43.5938 62.2292 43.8854 62.3229 44.1562 62.4062C44.4271 62.4896 44.625 62.5417 44.75 62.5625C44.8125 62.5625 44.9688 62.5729 45.2188 62.5938C45.4896 62.5938 45.7708 62.6042 46.0625 62.625C46.3542 62.625 46.625 62.6354 46.875 62.6562C47.125 62.6562 47.2812 62.6667 47.3438 62.6875C47.3854 62.6875 47.5104 62.7083 47.7188 62.75C47.9479 62.7708 48.0729 62.7812 48.0938 62.7812H48.5C48.7708 62.7812 49.0208 62.7292 49.25 62.625C49.5 62.5 49.7708 62.4062 50.0625 62.3438C50.3542 62.2604 50.6354 62.2083 50.9062 62.1875C51.1771 62.1458 51.4375 62.0417 51.6875 61.875C52.0417 61.625 52.3854 61.3958 52.7188 61.1875C53.0729 60.9583 53.3958 60.7188 53.6875 60.4688C53.9792 60.2188 54.2396 59.9375 54.4688 59.625C54.7188 59.2917 54.9271 58.9062 55.0938 58.4688C55.0938 58.4479 55.1042 58.3646 55.125 58.2188C55.1458 58.0729 55.1562 57.9271 55.1562 57.7812C55.1771 57.6146 55.1979 57.4688 55.2188 57.3438C55.2396 57.1979 55.25 57.1042 55.25 57.0625C55.2708 57.0208 55.3125 56.9271 55.375 56.7812C55.4583 56.6354 55.5417 56.4896 55.625 56.3438C55.7292 56.1771 55.8125 56.0312 55.875 55.9062C55.9583 55.7604 56 55.6771 56 55.6562C56 55.6146 56.0104 55.4479 56.0312 55.1562C56.0521 54.8646 56.0625 54.6354 56.0625 54.4688C56.0625 53.7396 55.9479 53.0417 55.7188 52.375C55.4896 51.7083 55.1771 51.0938 54.7812 50.5312C54.4062 49.9479 53.9479 49.4271 53.4062 48.9688C52.8854 48.4896 52.3125 48.0833 51.6875 47.75C51.6458 47.7083 51.4896 47.6771 51.2188 47.6562C50.9479 47.6146 50.7917 47.5729 50.75 47.5312C50.6875 47.5104 50.5312 47.4479 50.2812 47.3438C50.0521 47.2188 49.8021 47.0938 49.5312 46.9688C49.2604 46.8229 49 46.6979 48.75 46.5938C48.5208 46.4688 48.375 46.3854 48.3125 46.3438C48.3125 46.3229 48.2396 46.2917 48.0938 46.25C47.9688 46.2083 47.8229 46.1667 47.6562 46.125C47.4896 46.0625 47.3229 46.0104 47.1562 45.9688C47.0104 45.9062 46.9271 45.875 46.9062 45.875C46.8854 45.8542 46.8021 45.8125 46.6562 45.75C46.5312 45.6667 46.3854 45.5938 46.2188 45.5312C46.0729 45.4688 45.9271 45.4167 45.7812 45.375C45.6562 45.3125 45.5625 45.2812 45.5 45.2812C45.3333 45.2396 45.1354 45.2083 44.9062 45.1875C44.6979 45.1667 44.5729 45.1562 44.5312 45.1562C43.3646 44.8854 42.125 44.5 40.8125 44C39.5208 43.4792 38.3854 42.9062 37.4062 42.2812C37.3646 42.2604 37.2917 42.1979 37.1875 42.0938C37.1042 41.9896 37.0104 41.8854 36.9062 41.7812C36.8021 41.6562 36.6979 41.5417 36.5938 41.4375C36.5104 41.3333 36.4583 41.2812 36.4375 41.2812C36.3958 41.2812 36.3021 41.25 36.1562 41.1875C36.0104 41.125 35.9375 41.0833 35.9375 41.0625C35.8958 41.0625 35.8542 41.0312 35.8125 40.9688C35.7708 40.8854 35.7292 40.8438 35.6875 40.8438C35.6667 40.8021 35.6042 40.6979 35.5 40.5312C35.4167 40.3646 35.3229 40.1875 35.2188 40C35.1146 39.8125 35.0104 39.6354 34.9062 39.4688C34.8229 39.3021 34.7708 39.1979 34.75 39.1562C34.4167 38.6146 34.0625 38.0729 33.6875 37.5312C33.3125 36.9896 33.0417 36.4167 32.875 35.8125C32.7083 35.1458 32.5729 34.4479 32.4688 33.7188C32.3646 32.9896 32.3125 32.3021 32.3125 31.6562C32.3125 31.1771 32.3229 30.6667 32.3438 30.125C32.3646 29.5833 32.4271 29.0938 32.5312 28.6562C32.5729 28.6146 32.6771 28.5 32.8438 28.3125C33.0104 28.1042 33.0938 27.9688 33.0938 27.9062C33.1354 27.8438 33.1875 27.7604 33.25 27.6562C33.3125 27.5312 33.375 27.4062 33.4375 27.2812C33.5208 27.1562 33.5938 27.0521 33.6562 26.9688C33.7188 26.8646 33.7604 26.8021 33.7812 26.7812C34.5938 25.3438 35.5938 24.0938 36.7812 23.0312C37.9688 21.9688 39.3646 21.1979 40.9688 20.7188C41.0104 20.7188 41.125 20.6979 41.3125 20.6562C41.5 20.5938 41.625 20.5625 41.6875 20.5625C41.7708 20.5208 41.9271 20.4688 42.1562 20.4062C42.4062 20.3229 42.5521 20.2812 42.5938 20.2812C42.6146 20.2812 42.7188 20.2812 42.9062 20.2812C43.0938 20.2604 43.3021 20.25 43.5312 20.25C43.7812 20.2292 44.0312 20.2188 44.2812 20.2188C44.5312 20.1979 44.7292 20.1875 44.875 20.1875C44.9583 20.1875 45.0938 20.1979 45.2812 20.2188C45.4688 20.2396 45.6667 20.2604 45.875 20.2812C46.1042 20.2812 46.3125 20.2917 46.5 20.3125C46.7083 20.3333 46.8646 20.3438 46.9688 20.3438C47.1146 20.3854 47.2812 20.4375 47.4688 20.5C47.6771 20.5417 47.8021 20.5625 47.8438 20.5625C48.1979 20.5833 48.5 20.6042 48.75 20.625C49.0208 20.625 49.2917 20.6562 49.5625 20.7188C49.8333 20.7604 50.125 20.8438 50.4375 20.9688C50.7708 21.0729 51.1875 21.2396 51.6875 21.4688C52.2083 21.7188 52.6875 21.9583 53.125 22.1875C53.5833 22.4167 53.8958 22.5729 54.0625 22.6562C54.1042 22.6979 54.2292 22.7917 54.4375 22.9375C54.6458 23.0625 54.75 23.1562 54.75 23.2188H55.1875C55.4167 23.2188 55.6146 23.1667 55.7812 23.0625C55.9479 22.9583 56.0938 22.8333 56.2188 22.6875C56.3646 22.5417 56.5 22.3854 56.625 22.2188C56.75 22.0312 56.8854 21.875 57.0312 21.75C57.0729 21.6875 57.1562 21.5729 57.2812 21.4062C57.4271 21.2396 57.5833 21.0625 57.75 20.875C57.9375 20.6875 58.1042 20.5208 58.25 20.375C58.4167 20.2083 58.5312 20.0938 58.5938 20.0312H58.875C59.1042 20.0312 59.2708 20.1354 59.375 20.3438C59.4792 20.5521 59.5417 20.7708 59.5625 21C59.5625 21.0208 59.5729 21.1354 59.5938 21.3438C59.6146 21.5312 59.6354 21.75 59.6562 22C59.6771 22.25 59.6979 22.5104 59.7188 22.7812C59.7396 23.0312 59.7604 23.2292 59.7812 23.375V23.5938V23.6562C59.7188 24.0938 59.6562 24.7083 59.5938 25.5C59.5312 26.2917 59.4583 27.0833 59.375 27.875C59.3125 28.6667 59.25 29.375 59.1875 30C59.1458 30.6042 59.1146 30.9583 59.0938 31.0625C59.0312 31.6042 58.875 32.1042 58.625 32.5625C58.3958 33 57.9688 33.2188 57.3438 33.2188C57.2188 33.2188 57.0208 33.2083 56.75 33.1875C56.5 33.1667 56.3229 33.0833 56.2188 32.9375C55.9688 32.625 55.7604 32.2917 55.5938 31.9375C55.4479 31.5833 55.3021 31.2396 55.1562 30.9062C55.0104 30.5521 54.8542 30.1979 54.6875 29.8438C54.5208 29.4896 54.3125 29.1562 54.0625 28.8438C53.7708 28.4896 53.4688 28.1146 53.1562 27.7188C52.8646 27.3229 52.5521 26.9375 52.2188 26.5625C51.8854 26.1667 51.5417 25.7917 51.1875 25.4375C50.8333 25.0833 50.4583 24.7708 50.0625 24.5C50.0208 24.5 49.9479 24.4896 49.8438 24.4688C49.7604 24.4271 49.6667 24.3854 49.5625 24.3438C49.4583 24.3021 49.3542 24.2604 49.25 24.2188C49.1667 24.1771 49.1146 24.1458 49.0938 24.125C49.0521 24.1042 48.9792 24.0521 48.875 23.9688C48.7708 23.8646 48.6458 23.7604 48.5 23.6562C48.375 23.5312 48.25 23.4271 48.125 23.3438C48 23.2604 47.9062 23.2188 47.8438 23.2188C47.8438 23.1979 47.7917 23.1771 47.6875 23.1562C47.5833 23.1146 47.4583 23.0833 47.3125 23.0625C47.1667 23.0417 47.0104 23.0208 46.8438 23C46.6979 22.9792 46.5833 22.9583 46.5 22.9375C46.3958 22.9167 46.2292 22.8958 46 22.875C45.7917 22.8542 45.5729 22.8333 45.3438 22.8125C45.1146 22.7708 44.8958 22.7396 44.6875 22.7188C44.5 22.6979 44.3646 22.6771 44.2812 22.6562H43.9375C42.7083 22.6562 41.6771 22.9062 40.8438 23.4062C40.0312 23.8854 39.3021 24.5938 38.6562 25.5312C38.3854 25.9062 38.1458 26.2188 37.9375 26.4688C37.7292 26.6979 37.5521 26.9271 37.4062 27.1562C37.2812 27.3646 37.1875 27.6146 37.125 27.9062C37.0625 28.1771 37.0312 28.5417 37.0312 29C37.0312 29.1042 37.0312 29.2188 37.0312 29.3438C37.0312 29.4479 37.0417 29.5521 37.0625 29.6562C37.0833 29.7812 37.1042 29.9062 37.125 30.0312C37.1458 30.1354 37.2188 30.3229 37.3438 30.5938C37.4688 30.8646 37.6146 31.1562 37.7812 31.4688C37.9479 31.7604 38.1042 32.0521 38.25 32.3438C38.4167 32.6146 38.5521 32.8125 38.6562 32.9375C38.6562 32.9792 38.7083 33.0625 38.8125 33.1875C38.9375 33.3125 39.0729 33.4583 39.2188 33.625C39.3646 33.7708 39.5 33.9167 39.625 34.0625C39.7708 34.1875 39.875 34.2812 39.9375 34.3438C40.7708 35.0938 41.6771 35.7083 42.6562 36.1875C43.6562 36.6458 44.6667 37.0417 45.6875 37.375C46.7292 37.6875 47.7708 37.9792 48.8125 38.25C49.875 38.5 50.9062 38.8021 51.9062 39.1562C52.0729 39.4271 52.3021 39.5833 52.5938 39.625C52.8854 39.6458 53.1771 39.7292 53.4688 39.875C53.6354 40 53.8542 40.1354 54.125 40.2812C54.3958 40.4271 54.6667 40.5833 54.9375 40.75C55.2292 40.9167 55.5104 41.0938 55.7812 41.2812C56.0729 41.4479 56.3125 41.625 56.5 41.8125C56.5625 41.8542 56.6458 41.9271 56.75 42.0312C56.8542 42.1354 56.9688 42.25 57.0938 42.375C57.2188 42.4792 57.3333 42.5833 57.4375 42.6875C57.5417 42.7917 57.625 42.875 57.6875 42.9375C57.6875 43 57.7604 43.125 57.9062 43.3125C58.0521 43.5 58.1354 43.6146 58.1562 43.6562C58.6354 44.1979 59.125 44.7292 59.625 45.25C60.1458 45.75 60.5417 46.3542 60.8125 47.0625C60.8542 47.2292 60.9062 47.4271 60.9688 47.6562C61.0521 47.8854 61.1354 48.1146 61.2188 48.3438C61.3021 48.5938 61.4062 48.8646 61.5312 49.1562C61.6146 49.5938 61.6667 50.0208 61.6875 50.4375C61.7083 50.8333 61.7188 51.2396 61.7188 51.6562C61.7188 52.1979 61.6979 52.7396 61.6562 53.2812C61.6146 53.8021 61.5729 54.3333 61.5312 54.875C61.3438 55.3333 61.1667 55.7604 61 56.1562C60.8333 56.5521 60.6667 56.9375 60.5 57.3125C60.3333 57.6875 60.1562 58.0729 59.9688 58.4688C59.7812 58.8438 59.5729 59.2396 59.3438 59.6562C59.3021 59.6771 59.2188 59.7292 59.0938 59.8125C58.9896 59.875 58.9167 59.9271 58.875 59.9688C58.5417 60.2604 58.25 60.5312 58 60.7812C57.75 61.0312 57.5 61.2812 57.25 61.5312C57.0208 61.7812 56.7604 62.0312 56.4688 62.2812C56.1979 62.5312 55.8646 62.7917 55.4688 63.0625C54.8021 63.5208 54.0625 63.9062 53.25 64.2188C52.4375 64.5104 51.6042 64.7708 50.75 65C50.3333 65.0833 50 65.125 49.75 65.125C49.5208 65.125 49.2292 65.2083 48.875 65.375C48.7708 65.375 48.5938 65.375 48.3438 65.375C48.1146 65.3958 47.875 65.4062 47.625 65.4062C47.375 65.4062 47.1458 65.4062 46.9375 65.4062C46.7292 65.4271 46.5833 65.4375 46.5 65.4375C45.5 65.4375 44.5104 65.4167 43.5312 65.375C42.5729 65.3542 41.625 65.2292 40.6875 65C40.2917 64.8542 39.8646 64.7292 39.4062 64.625C38.9688 64.5 38.5208 64.3542 38.0625 64.1875C38 64.1667 37.9375 64.1354 37.875 64.0938C37.75 64.0521 37.6667 64.0104 37.625 63.9688C37.6042 63.9688 37.5417 63.9583 37.4375 63.9375C37.3333 63.9167 37.2188 63.9062 37.0938 63.9062C36.9688 63.8854 36.8438 63.8646 36.7188 63.8438C36.5938 63.8229 36.5 63.8125 36.4375 63.8125H36.3125H36.0938C36.0104 63.8542 35.8438 63.9375 35.5938 64.0625C35.3438 64.1875 35.0625 64.3333 34.75 64.5C34.4583 64.6458 34.1667 64.7812 33.875 64.9062C33.6042 65.0312 33.4062 65.1146 33.2812 65.1562C33.1979 65.2188 33.0625 65.2708 32.875 65.3125C32.6875 65.3542 32.5729 65.375 32.5312 65.375C32.4479 65.375 32.375 65.2604 32.3125 65.0312C32.2708 64.8021 32.2292 64.5417 32.1875 64.25C32.1667 63.9375 32.1458 63.6354 32.125 63.3438C32.1042 63.0521 32.0938 62.8438 32.0938 62.7188ZM65.1875 64.5V64.3125C65.3333 64.0833 65.5208 63.8021 65.75 63.4688C65.9792 63.1146 66.2396 62.9271 66.5312 62.9062C66.6354 62.9062 66.8125 62.8958 67.0625 62.875C67.3333 62.8333 67.6042 62.8021 67.875 62.7812C68.1667 62.7396 68.4271 62.7083 68.6562 62.6875C68.9062 62.6458 69.0833 62.625 69.1875 62.625C69.25 62.625 69.3229 62.5938 69.4062 62.5312C69.5104 62.4479 69.6146 62.3542 69.7188 62.25C69.8229 62.1458 69.9167 62.0417 70 61.9375C70.0833 61.8333 70.1354 61.75 70.1562 61.6875C70.1771 61.6875 70.1979 61.6146 70.2188 61.4688C70.2396 61.3229 70.2604 61.1667 70.2812 61C70.3021 60.8125 70.3229 60.6354 70.3438 60.4688C70.3646 60.2812 70.375 60.1354 70.375 60.0312C70.4375 59.2188 70.4688 58.4062 70.4688 57.5938C70.4896 56.7812 70.5 55.9688 70.5 55.1562C70.5 54.6146 70.4896 54.0729 70.4688 53.5312C70.4479 52.9688 70.4375 52.4167 70.4375 51.875C70.4375 50.375 70.4688 48.8854 70.5312 47.4062C70.6146 45.9062 70.8021 44.3958 71.0938 42.875L71.3438 27.8438C71.3438 27.6771 71.2917 27.4479 71.1875 27.1562C71.0833 26.8646 70.9479 26.5729 70.7812 26.2812C70.6146 25.9688 70.4375 25.6979 70.25 25.4688C70.0625 25.2396 69.8958 25.1042 69.75 25.0625C69.6875 25.0417 69.5833 25.0208 69.4375 25C69.2917 24.9792 69.1354 24.9583 68.9688 24.9375C68.8021 24.8958 68.6458 24.8646 68.5 24.8438C68.3542 24.8229 68.2604 24.8021 68.2188 24.7812C68.0938 24.7604 67.9375 24.7188 67.75 24.6562C67.5625 24.5938 67.375 24.5208 67.1875 24.4375C67.0208 24.3333 66.8646 24.2188 66.7188 24.0938C66.5938 23.9688 66.5312 23.8229 66.5312 23.6562C66.5312 23.2604 66.6771 22.9583 66.9688 22.75C67.2604 22.5208 67.5938 22.3438 67.9688 22.2188C68.3646 22.0938 68.7604 22 69.1562 21.9375C69.5729 21.875 69.9062 21.7917 70.1562 21.6875C70.3646 21.6042 70.7292 21.4479 71.25 21.2188C71.7708 20.9688 72.3125 20.7083 72.875 20.4375C73.4583 20.1458 74.0104 19.875 74.5312 19.625C75.0521 19.375 75.4167 19.1979 75.625 19.0938C75.9583 19.1354 76.2188 19.2292 76.4062 19.375C76.5938 19.5208 76.7292 19.7083 76.8125 19.9375C76.9167 20.1667 76.9792 20.4271 77 20.7188C77.0208 21.0104 77.0312 21.3021 77.0312 21.5938V21.6875C77.0312 21.7917 77.0208 21.9583 77 22.1875C76.9792 22.3958 76.9479 22.625 76.9062 22.875C76.8854 23.125 76.8542 23.3646 76.8125 23.5938C76.7708 23.8229 76.7396 23.9792 76.7188 24.0625V24.7812C76.7396 25.0521 76.7604 25.4688 76.7812 26.0312C76.8021 26.5938 76.8229 27.2292 76.8438 27.9375C76.8646 28.6458 76.8854 29.3854 76.9062 30.1562C76.9271 30.9271 76.9479 31.6667 76.9688 32.375C76.9896 33.0833 77 33.7188 77 34.2812C77.0208 34.8438 77.0312 35.2604 77.0312 35.5312C77.0729 35.6979 77.0938 35.9896 77.0938 36.4062C77.0938 36.8021 77.0938 37.2292 77.0938 37.6875C77.0938 38.1667 77.0938 38.6042 77.0938 39C77.0938 39.375 77.0729 39.6458 77.0312 39.8125C77.0938 39.9167 77.1667 39.9792 77.25 40C77.3542 40.0208 77.4792 40.0312 77.625 40.0312C77.7917 40.0312 78.0312 39.8958 78.3438 39.625C78.6771 39.3542 79.0312 39.0417 79.4062 38.6875C79.7812 38.3125 80.1458 37.9583 80.5 37.625C80.8542 37.2708 81.1354 37.0208 81.3438 36.875C81.3854 36.875 81.4688 36.8542 81.5938 36.8125C81.7188 36.7708 81.8438 36.7292 81.9688 36.6875C82.1146 36.6458 82.2396 36.6042 82.3438 36.5625C82.4688 36.5208 82.5521 36.4896 82.5938 36.4688C82.9688 36.2604 83.2604 36.0938 83.4688 35.9688C83.6979 35.8229 83.9167 35.7188 84.125 35.6562C84.3333 35.5729 84.5625 35.5104 84.8125 35.4688C85.0833 35.4062 85.4479 35.3438 85.9062 35.2812C85.9479 35.2812 86.0208 35.2708 86.125 35.25C86.25 35.2292 86.375 35.2083 86.5 35.1875C86.6458 35.1458 86.7812 35.1146 86.9062 35.0938C87.0312 35.0729 87.1146 35.0625 87.1562 35.0625C88.1354 35.0625 88.9792 35.1667 89.6875 35.375C90.4167 35.5833 91.1354 35.9479 91.8438 36.4688C91.8646 36.4896 91.9479 36.5521 92.0938 36.6562C92.2396 36.7396 92.3854 36.8333 92.5312 36.9375C92.6979 37.0417 92.8438 37.1458 92.9688 37.25C93.1146 37.3542 93.1875 37.4167 93.1875 37.4375C93.3333 37.5208 93.4896 37.7188 93.6562 38.0312C93.8438 38.3438 94.0208 38.6875 94.1875 39.0625C94.3542 39.4167 94.5 39.7604 94.625 40.0938C94.7708 40.4271 94.875 40.6562 94.9375 40.7812V42.1875V43.5938C94.9375 43.6354 94.9062 43.7604 94.8438 43.9688C94.8021 44.1771 94.7604 44.3021 94.7188 44.3438V44.5625V44.8438C94.9062 46.0312 95.0312 47.25 95.0938 48.5C95.1562 49.7292 95.1875 50.9583 95.1875 52.1875C95.1875 52.7083 95.1875 53.1875 95.1875 53.625C95.1875 54.0625 95.1771 54.4896 95.1562 54.9062C95.1354 55.3229 95.1042 55.7604 95.0625 56.2188C95.0417 56.6562 95 57.1458 94.9375 57.6875C94.9375 57.7292 94.9062 57.8542 94.8438 58.0625C94.8021 58.25 94.7604 58.3646 94.7188 58.4062V59.0625V59.6875C94.7188 60.1667 94.75 60.6562 94.8125 61.1562C94.8958 61.6354 95.0938 62 95.4062 62.25C95.6354 62.2083 95.8646 62.1771 96.0938 62.1562C96.3229 62.1146 96.5521 62.0938 96.7812 62.0938C97.4271 62.0938 98.0104 62.2292 98.5312 62.5C99.0521 62.75 99.3125 63.2396 99.3125 63.9688C99.3125 64.0521 99.3125 64.1771 99.3125 64.3438C99.3125 64.4896 99.2917 64.5625 99.25 64.5625C99.25 64.6667 99.1771 64.7708 99.0312 64.875C98.9062 64.9583 98.8021 65 98.7188 65H85.1562C85.0521 65 84.9896 64.9167 84.9688 64.75C84.9479 64.5625 84.9375 64.4167 84.9375 64.3125C84.9375 64.0833 85 63.8646 85.125 63.6562C85.2708 63.4479 85.4375 63.2604 85.625 63.0938C85.9583 63.0938 86.2917 63.0938 86.625 63.0938C86.9583 63.0729 87.2708 63.0312 87.5625 62.9688C87.8542 62.8854 88.1042 62.75 88.3125 62.5625C88.5208 62.3542 88.6562 62.0625 88.7188 61.6875C88.7188 61.6458 88.7292 61.5104 88.75 61.2812C88.7917 61.0521 88.8229 60.8021 88.8438 60.5312C88.8854 60.2604 88.9167 60.0104 88.9375 59.7812C88.9792 59.5521 89.0104 59.4167 89.0312 59.375C89.0312 59.3333 89.0521 59.2083 89.0938 59C89.1562 58.7708 89.1875 58.625 89.1875 58.5625C89.1875 58.5417 89.1875 58.4688 89.1875 58.3438C89.2083 58.2188 89.2292 58.0833 89.25 57.9375C89.2708 57.7708 89.2812 57.6146 89.2812 57.4688C89.3021 57.3021 89.3125 57.1667 89.3125 57.0625C89.3125 56.9583 89.3021 56.8229 89.2812 56.6562C89.2812 56.4896 89.2708 56.3229 89.25 56.1562C89.2292 55.9479 89.2083 55.7396 89.1875 55.5312C89.1875 55.5104 89.1562 55.3958 89.0938 55.1875C89.0521 54.9792 89.0312 54.8646 89.0312 54.8438V54.3438C89.0312 54.1146 89.0312 53.9167 89.0312 53.75C89.0521 53.5833 89.1042 53.3854 89.1875 53.1562C89.2083 52.9479 89.2292 52.5938 89.25 52.0938C89.2917 51.5938 89.3229 51.0729 89.3438 50.5312C89.3646 49.9688 89.3854 49.4375 89.4062 48.9375C89.4271 48.4375 89.4479 48.0833 89.4688 47.875C89.4688 47.7083 89.4583 47.4479 89.4375 47.0938C89.4167 46.7188 89.3854 46.3333 89.3438 45.9375C89.3229 45.5417 89.2917 45.1667 89.25 44.8125C89.2292 44.4583 89.2083 44.2083 89.1875 44.0625C89 43.9583 88.8854 43.8125 88.8438 43.625C88.8021 43.4167 88.7604 43.2604 88.7188 43.1562C88.4896 42.6146 88.2604 42.1771 88.0312 41.8438C87.8021 41.5104 87.5312 41.2396 87.2188 41.0312C86.9271 40.8021 86.5729 40.6146 86.1562 40.4688C85.7604 40.3229 85.2812 40.1771 84.7188 40.0312C84.6562 40.0312 84.5312 40 84.3438 39.9375C84.1562 39.8542 84.0417 39.8125 84 39.8125C83.9583 39.7708 83.8333 39.75 83.625 39.75C83.4375 39.75 83.2917 39.75 83.1875 39.75C82.6667 39.75 82.1354 39.7917 81.5938 39.875C81.0521 39.9583 80.5312 40.0938 80.0312 40.2812C79.5312 40.4688 79.0625 40.7188 78.625 41.0312C78.1875 41.3438 77.8021 41.7292 77.4688 42.1875C77.4062 42.2917 77.3438 42.4896 77.2812 42.7812C77.2188 43.0521 77.1458 43.3333 77.0625 43.625C77 43.9167 76.9271 44.1875 76.8438 44.4375C76.7604 44.6667 76.6771 44.8021 76.5938 44.8438L76.125 46.875V62.25C76.3542 62.3542 76.5625 62.4688 76.75 62.5938C76.9375 62.7188 77.125 62.8333 77.3125 62.9375H80.6562C80.7396 62.9375 80.8125 63 80.875 63.125C80.9583 63.2292 81.0208 63.3542 81.0625 63.5C81.1042 63.6458 81.1354 63.7917 81.1562 63.9375C81.1771 64.0833 81.1875 64.1875 81.1875 64.25C81.1875 64.5417 81.0521 64.7917 80.7812 65C80.5104 65.1875 80.25 65.2812 80 65.2812H79.6875C79.6458 65.2812 79.5521 65.2708 79.4062 65.25C79.2604 65.2292 79.1042 65.1979 78.9375 65.1562C78.7917 65.1354 78.6458 65.1042 78.5 65.0625C78.375 65.0417 78.3021 65.0208 78.2812 65H75.0938C73.8438 65 72.5833 65.0417 71.3125 65.125C70.0625 65.2292 68.8021 65.2812 67.5312 65.2812H65.9062C65.8438 65.2396 65.7188 65.125 65.5312 64.9375C65.3438 64.75 65.2292 64.625 65.1875 64.5625V64.5ZM103.25 60.7188V60.0938C103.25 60.0521 103.281 59.9688 103.344 59.8438C103.427 59.7188 103.51 59.5938 103.594 59.4688C103.677 59.3229 103.75 59.1979 103.812 59.0938C103.896 58.9688 103.948 58.9062 103.969 58.9062C104.302 58.2188 104.719 57.7604 105.219 57.5312C105.74 57.2812 106.365 57.1562 107.094 57.1562H108.25C108.292 57.1771 108.344 57.2083 108.406 57.25C108.51 57.3125 108.594 57.3958 108.656 57.5C109.24 57.8125 109.75 58.2292 110.188 58.75C110.625 59.2708 110.844 59.8958 110.844 60.625C110.844 61.125 110.729 61.6458 110.5 62.1875C110.292 62.7292 110 63.2188 109.625 63.6562C109.271 64.0938 108.854 64.4479 108.375 64.7188C107.896 64.9688 107.385 65.0625 106.844 65C106.448 64.9792 106.104 64.9062 105.812 64.7812C105.521 64.6562 105.25 64.5 105 64.3125C104.771 64.1042 104.552 63.8854 104.344 63.6562C104.135 63.4062 103.917 63.1562 103.688 62.9062C103.5 62.6562 103.375 62.3125 103.312 61.875C103.271 61.4375 103.25 61.0521 103.25 60.7188Z" fill="#FBF2C0" />
  </svg>